<?xml version="1.0" encoding="utf-8"?>
<!-- Generator: Adobe Illustrator 16.0.0, SVG Export Plug-In . SVG Version: 6.00 Build 0)  -->
<!DOCTYPE svg PUBLIC "-//W3C//DTD SVG 1.1//EN" "http://www.w3.org/Graphics/SVG/1.1/DTD/svg11.dtd" [
	<!ENTITY ns_flows "http://ns.adobe.com/Flows/1.0/">
	<!ENTITY ns_extend "http://ns.adobe.com/Extensibility/1.0/">
	<!ENTITY ns_ai "http://ns.adobe.com/AdobeIllustrator/10.0/">
	<!ENTITY ns_graphs "http://ns.adobe.com/Graphs/1.0/">
]>
<svg version="1.1" id="Layer_1" xmlns:x="&ns_extend;" xmlns:i="&ns_ai;" xmlns:graph="&ns_graphs;"
	 xmlns="http://www.w3.org/2000/svg" xmlns:xlink="http://www.w3.org/1999/xlink" xmlns:a="http://ns.adobe.com/AdobeSVGViewerExtensions/3.0/"
	 x="0px" y="0px" width="77.724px" height="76.271px" viewBox="0 0 77.724 76.271" enable-background="new 0 0 77.724 76.271"
	 xml:space="preserve">
<g>

		<text transform="matrix(1.0425 -0.2429 0.2551 0.9669 11.1758 77.4404)" fill="#B32C39" font-family="'Arial-Black'" font-size="95.0029">D</text>

		<text transform="matrix(1.0425 -0.2429 0.2551 0.9669 11.1758 77.4404)" fill="none" stroke="#82AA8E" stroke-miterlimit="10" font-family="'Arial-Black'" font-size="95.0029">D</text>
	<polygon fill="#FFFFFF" points="40.168,59.446 24.729,52.144 18.222,28.312 33.663,35.614 	"/>
	<polygon points="40.168,59.446 40.238,59.315 24.861,52.042 18.457,28.588 33.53,35.718 40.019,59.481 40.168,59.446
		40.238,59.315 40.168,59.446 40.319,59.409 33.795,35.513 17.987,28.037 24.595,52.245 40.403,59.722 40.319,59.409 	"/>
	<polygon fill="#FFFFFF" points="33.652,35.724 55.532,24.574 62.127,48.384 40.246,59.534 	"/>
	<polygon points="33.652,35.724 33.726,35.853 55.433,24.792 61.946,48.31 40.346,59.317 33.801,35.687 33.652,35.724
		33.726,35.853 33.652,35.724 33.502,35.761 40.147,59.753 62.309,48.46 55.633,24.356 33.47,35.647 33.502,35.761 	"/>
	<polygon fill="#FFFFFF" points="27.815,45.767 12.172,38.208 18.194,28.322 33.525,35.519 	"/>
	<polygon points="27.815,45.767 27.886,45.636 12.388,38.147 18.255,28.516 33.314,35.583 27.679,45.7 27.815,45.767 27.886,45.636
		27.815,45.767 27.953,45.835 33.736,35.455 18.134,28.13 11.957,38.271 27.881,45.964 27.953,45.835 	"/>
	<polygon fill="#FFFFFF" points="65.976,31.917 44.023,43.433 33.525,36.026 55.532,25.082 	"/>
	<polygon points="65.976,31.917 65.901,31.789 44.037,43.259 33.815,36.048 55.521,25.254 65.888,32.038 65.976,31.917
		65.901,31.789 65.976,31.917 66.062,31.796 55.543,24.91 33.233,36.005 44.011,43.608 66.27,31.931 66.062,31.796 	"/>
	<polygon fill="#FFFFFF" points="55.532,25.843 39.392,18.114 46.094,13.001 61.85,19.726 	"/>
	<polygon points="55.532,25.843 55.603,25.712 39.677,18.085 46.117,13.173 61.584,19.773 55.422,25.74 55.532,25.843
		55.603,25.712 55.532,25.843 55.644,25.947 62.116,19.677 46.071,12.831 39.107,18.143 55.564,26.023 55.644,25.947 	"/>
	<polygon fill="#FFFFFF" points="13.778,21.157 34.789,11.152 40.287,18.105 18.194,28.832 	"/>
	<polygon points="13.778,21.157 13.848,21.289 34.744,11.338 40.052,18.054 18.258,28.634 13.913,21.087 13.778,21.157
		13.848,21.289 13.778,21.157 13.642,21.229 18.131,29.026 40.522,18.157 34.834,10.965 13.564,21.095 13.642,21.229 	"/>
	<polygon fill="#FFFFFF" points="55.532,25.082 33.525,36.026 18.25,28.925 39.392,18.114 	"/>
	<polygon points="55.532,25.082 55.461,24.951 33.521,35.862 18.589,28.918 39.397,18.278 55.469,25.215 55.532,25.082
		55.461,24.951 55.532,25.082 55.597,24.947 39.385,17.95 17.912,28.931 33.527,36.192 55.886,25.073 55.597,24.947 	"/>
</g>
</svg>
