<?xml version="1.0" encoding="utf-8"?>
<!-- Generator: Adobe Illustrator 19.2.1, SVG Export Plug-In . SVG Version: 6.00 Build 0)  -->
<svg version="1.1" id="Layer_1" xmlns="http://www.w3.org/2000/svg" xmlns:xlink="http://www.w3.org/1999/xlink" x="0px" y="0px"
	 viewBox="0 0 1608.5 1608.5" style="enable-background:new 0 0 1608.5 1608.5;" xml:space="preserve">
<style type="text/css">
	.st0{fill:#FFFFFF;stroke:#000000;stroke-width:2;stroke-miterlimit:10;}
	.st1{stroke:#000000;stroke-width:2;stroke-miterlimit:10;}
</style>
<g>
	<path id="XMLID_6_" class="st0" d="M238.6,238.6C93.8,383.3,4.3,583.3,4.3,804.3c0,220.9,89.5,420.9,234.3,565.7L380,1228.5
		c-108.6-108.6-175.7-258.6-175.7-424.3c0-165.7,67.2-315.7,175.7-424.3L238.6,238.6z"/>
	<path id="XMLID_4_" class="st0" d="M662.8,662.8c-36.2,36.2-58.6,86.2-58.6,141.4c0,55.2,22.4,105.2,58.6,141.4l-141.4,141.4
		c-72.4-72.4-117.2-172.4-117.2-282.8c0-110.5,44.8-210.5,117.2-282.8L662.8,662.8z"/>
	<path class="st0" d="M820.7,820.7l72.1-69.3l104.7,104.7c4.4-16.5,6.8-33.9,6.8-51.8c0-55.2-22.4-105.2-58.6-141.4l141.4-141.4
		c72.4,72.4,117.2,172.4,117.2,282.8c0,74.2-20.2,143.6-55.4,203.2l55.4,55.4v141.4L820.7,820.7z"/>
</g>
<g>
	<path id="XMLID_9_" class="st1" d="M380,380c108.6-108.6,258.6-175.7,424.3-175.7c165.7,0,315.7,67.2,424.3,175.7l141.4-141.4
		C1225.2,93.8,1025.2,4.3,804.3,4.3c-220.9,0-420.9,89.5-565.7,234.3L380,380z"/>
	<path id="XMLID_3_" class="st1" d="M380,1228.5c108.6,108.6,258.6,175.7,424.3,175.7c165.7,0,315.7-67.2,424.3-175.7l141.4,141.4
		c-144.8,144.8-344.8,234.3-565.7,234.3c-220.9,0-420.9-89.5-565.7-234.3L380,1228.5z"/>
	<path id="XMLID_1_" class="st1" d="M521.4,521.4c72.4-72.4,172.4-117.2,282.8-117.2c110.5,0,210.5,44.8,282.8,117.2L945.7,662.8
		c-36.2-36.2-86.2-58.6-141.4-58.6c-55.2,0-105.2,22.4-141.4,58.6L521.4,521.4z"/>
	<path class="st1" d="M1204.3,1204.3h-141.4l-55.4-55.4c-59.6,35.2-129,55.4-203.2,55.4c-110.5,0-210.5-44.8-282.8-117.2
		l141.4-141.4c36.2,36.2,86.2,58.6,141.4,58.6c17.9,0,35.3-2.4,51.8-6.8L748.5,889.9l72.1-69.3L1204.3,1204.3z"/>
</g>
</svg>
