<?xml version="1.0" encoding="utf-8"?>
<!-- Generator: Adobe Illustrator 16.0.0, SVG Export Plug-In . SVG Version: 6.00 Build 0)  -->
<!DOCTYPE svg PUBLIC "-//W3C//DTD SVG 1.1//EN" "http://www.w3.org/Graphics/SVG/1.1/DTD/svg11.dtd">
<svg version="1.1" id="Layer_1" xmlns="http://www.w3.org/2000/svg" xmlns:xlink="http://www.w3.org/1999/xlink" x="0px" y="0px" viewBox="0 0 841.89 595.28" enable-background="new 0 0 841.89 595.28" xml:space="preserve">
<g>
	<g>
		<path fill="#F26327" d="M318.323,258.945c-1.271,4.784-6.225,7.658-11.009,6.388l-12.283-3.263
			c-4.784-1.271-7.659-6.225-6.388-11.009l23.603-88.866c1.271-4.784,6.36-8.698,11.311-8.698h91.617
			c4.95,0,7.253,3.654,5.117,8.119l-6.92,14.469c-2.135,4.465-7.933,8.119-12.883,8.119h-53.312c-4.95,0-10.04,3.914-11.311,8.698
			L318.323,258.945z"/>
		<path fill="none" stroke="#F26327" stroke-width="17" stroke-miterlimit="10" d="M318.323,258.945
			c-1.271,4.784-6.225,7.658-11.009,6.388l-12.283-3.263c-4.784-1.271-7.659-6.225-6.388-11.009l23.603-88.866
			c1.271-4.784,6.36-8.698,11.311-8.698h91.617c4.95,0,7.253,3.654,5.117,8.119l-6.92,14.469c-2.135,4.465-7.933,8.119-12.883,8.119
			h-53.312c-4.95,0-10.04,3.914-11.311,8.698L318.323,258.945z"/>
	</g>
	<g>
		<path fill="#F26327" d="M339.421,433.529c-1.974,4.54-7.638,8.254-12.588,8.254h-79.849c-4.95,0-7.96-3.914-6.689-8.698
			l25.792-97.104c1.271-4.784,6.225-7.658,11.009-6.388l12.283,3.263c4.784,1.271,7.659,6.225,6.388,11.009l-15.542,58.513
			c-1.271,4.784,1.739,8.698,6.689,8.698h53.271c4.95,0,7.385,3.714,5.412,8.254L339.421,433.529z"/>
		<path fill="none" stroke="#F26327" stroke-width="17" stroke-miterlimit="10" d="M339.421,433.529
			c-1.974,4.54-7.638,8.254-12.588,8.254h-79.849c-4.95,0-7.96-3.914-6.689-8.698l25.792-97.104
			c1.271-4.784,6.225-7.658,11.009-6.388l12.283,3.263c4.784,1.271,7.659,6.225,6.388,11.009l-15.542,58.513
			c-1.271,4.784,1.739,8.698,6.689,8.698h53.271c4.95,0,7.385,3.714,5.412,8.254L339.421,433.529z"/>
	</g>
	<g>
		<path fill="#F26327" d="M529.641,433.085c-1.271,4.784-6.36,8.698-11.311,8.698h-94.227c-4.95,0-7.252-3.653-5.116-8.119
			l6.92-14.469c2.136-4.466,7.933-8.119,12.883-8.119h55.925c4.95,0,10.039-3.914,11.311-8.698l14.829-55.842
			c1.271-4.784-1.042-10.97-5.141-13.746l-45.897-31.096c-4.099-2.777-3.861-6.923,0.527-9.214l67.342-35.158
			c4.389-2.291,9.018-8.08,10.289-12.864l13.691-51.555c1.27-4.784-1.74-8.699-6.69-8.699h-53.714c-4.95,0-7.253-3.654-5.117-8.119
			l6.92-14.469c2.136-4.465,7.933-8.119,12.883-8.119h78.959c4.95,0,7.96,3.914,6.689,8.698l-27.418,103.222
			c-1.271,4.784-5.9,10.572-10.289,12.863l-33.748,17.618c-4.389,2.291-4.626,6.438-0.528,9.214l21.379,14.488
			c4.098,2.776,6.41,8.963,5.14,13.747L529.641,433.085z"/>
		<path fill="none" stroke="#F26327" stroke-width="17" stroke-miterlimit="10" d="M529.641,433.085
			c-1.271,4.784-6.36,8.698-11.311,8.698h-94.227c-4.95,0-7.252-3.653-5.116-8.119l6.92-14.469
			c2.136-4.466,7.933-8.119,12.883-8.119h55.925c4.95,0,10.039-3.914,11.311-8.698l14.829-55.842
			c1.271-4.784-1.042-10.97-5.141-13.746l-45.897-31.096c-4.099-2.777-3.861-6.923,0.527-9.214l67.342-35.158
			c4.389-2.291,9.018-8.08,10.289-12.864l13.691-51.555c1.27-4.784-1.74-8.699-6.69-8.699h-53.714c-4.95,0-7.253-3.654-5.117-8.119
			l6.92-14.469c2.136-4.465,7.933-8.119,12.883-8.119h78.959c4.95,0,7.96,3.914,6.689,8.698l-27.418,103.222
			c-1.271,4.784-5.9,10.572-10.289,12.863l-33.748,17.618c-4.389,2.291-4.626,6.438-0.528,9.214l21.379,14.488
			c4.098,2.776,6.41,8.963,5.14,13.747L529.641,433.085z"/>
	</g>
</g>
</svg>
